<svg xmlns="http://www.w3.org/2000/svg" version="1.1" xmlns:xlink="http://www.w3.org/1999/xlink" xmlns:svgjs="http://svgjs.com/svgjs" width="512" height="512" x="0" y="0" viewBox="0 0 66 66" style="enable-background:new 0 0 512 512" xml:space="preserve" class=""><g><path fill="#e5e5e5" d="M65 7.26v51.48C65 62.2 62.2 65 58.74 65H7.26C3.8 65 1 62.2 1 58.74V7.26C1 3.81 3.8 1 7.26 1h51.48C62.2 1 65 3.81 65 7.26z" data-original="#e5e5e5" class=""></path><path fill="#c1c0c5" d="M62 62.75H4c-.41 0-.75-.34-.75-.75s.34-.75.75-.75h58c.41 0 .75.34.75.75s-.34.75-.75.75zM62 58.33H4c-.41 0-.75-.34-.75-.75s.34-.75.75-.75h58c.41 0 .75.34.75.75s-.34.75-.75.75zM62 53.91H4c-.41 0-.75-.34-.75-.75s.34-.75.75-.75h58c.41 0 .75.34.75.75s-.34.75-.75.75zM62 49.49H4c-.41 0-.75-.34-.75-.75s.34-.75.75-.75h58c.41 0 .75.34.75.75s-.34.75-.75.75z" data-original="#c1c0c5" class=""></path><path fill="#6e7fed" d="M65 12.49V7.26C65 3.81 62.2 1 58.74 1H7.26C3.8 1 1 3.81 1 7.26v5.23z" data-original="#6e7fed" class=""></path><g fill="#fff"><circle cx="7.78" cy="7.07" r="1.98" fill="#ffffff" data-original="#ffffff" class=""></circle><circle cx="12.95" cy="7.07" r="1.98" fill="#ffffff" data-original="#ffffff" class=""></circle><circle cx="18.13" cy="7.07" r="1.98" fill="#ffffff" data-original="#ffffff" class=""></circle></g><path fill="#ffffff" d="M59.45 8.11H35.27c-.41 0-.75-.34-.75-.75s.34-.75.75-.75h24.19c.41 0 .75.34.75.75s-.34.75-.76.75z" data-original="#ffffff" class=""></path><circle cx="18.83" cy="30.15" r="6.5" fill="#c1c0c5" data-original="#c1c0c5" class=""></circle><path fill="#fc8068" d="M18.84 19.87c3.01 0 5.71 1.3 7.58 3.36l3.36-3.06c-2.71-2.97-6.6-4.85-10.94-4.85z" data-original="#fc8068"></path><path fill="#fcd131" d="M33.66 30.14c0-3.85-1.48-7.34-3.88-9.98l-3.36 3.06c1.67 1.83 2.69 4.25 2.69 6.91 0 3.6-1.84 6.76-4.63 8.6l2.5 3.8c4.02-2.64 6.68-7.2 6.68-12.39z" data-original="#fcd131" class=""></path><path fill="#8c9ffa" d="M8.55 30.14c0-5.67 4.59-10.27 10.28-10.27v-4.55C10.64 15.32 4 21.96 4 30.14c0 3.16.99 6.08 2.68 8.49l3.73-2.6a10.208 10.208 0 0 1-1.86-5.89z" data-original="#8c9ffa"></path><path fill="#4ec4a5" d="M18.84 40.43c-3.5 0-6.58-1.74-8.43-4.4l-3.73 2.6c2.68 3.84 7.12 6.35 12.16 6.35 3.01 0 5.8-.9 8.14-2.44l-2.5-3.8a10.201 10.201 0 0 1-5.64 1.69zM42.3 27.2v15.16c0 .72-.58 1.3-1.3 1.3h-2.58c-.72 0-1.3-.58-1.3-1.3V27.2c0-.72.58-1.3 1.3-1.3H41c.72 0 1.3.58 1.3 1.3z" data-original="#4ec4a5" class=""></path><path fill="#fcd131" d="M62 23.72v18.64c0 .72-.58 1.3-1.3 1.3h-2.58c-.71 0-1.29-.58-1.29-1.3V23.72c0-.71.58-1.29 1.29-1.29h2.58c.72 0 1.3.58 1.3 1.29z" data-original="#fcd131" class=""></path><path fill="#fc8068" d="M48.7 32.02v10.34c0 .72-.58 1.3-1.3 1.3h-2.58c-.71 0-1.29-.58-1.29-1.3V32.02c0-.71.58-1.29 1.29-1.29h2.58c.72 0 1.3.58 1.3 1.29z" data-original="#fc8068"></path><path fill="#8c9ffa" d="M55.65 17.62v24.74c0 .72-.58 1.3-1.29 1.3h-2.58c-.72 0-1.3-.58-1.3-1.3V17.62c0-.72.58-1.29 1.3-1.29h2.58c.71 0 1.29.57 1.29 1.29z" data-original="#8c9ffa"></path></g></svg>