<svg version="1.2" xmlns="http://www.w3.org/2000/svg" viewBox="0 0 512 512" width="512" height="512">
	<title>income-svg</title>
	<style>
		.s0 { fill: #e53950 } 
		.s1 { fill: #fb5168 } 
		.s2 { fill: #ffba00 } 
		.s3 { fill: #f5a000 } 
		.s4 { fill: #ffea98 } 
		.s5 { fill: #ffd845 } 
	</style>
	<g id="Layer">
		<path id="Layer" class="s0" d="m184 0h220c8.3 0 15 6.7 15 15v317h45c3 0 6 0.9 8.5 2.7 2.5 1.7 4.5 4.1 5.5 7 1.1 2.8 1.3 6 0.6 8.9-0.8 3-2.4 5.6-4.7 7.6l-170 150c-1.3 1.2-2.9 2.2-4.6 2.8-1.7 0.7-3.5 1-5.3 1-1.8 0-3.6-0.3-5.3-1-1.7-0.6-3.3-1.6-4.6-2.8l-170-150c-2.3-2-3.9-4.6-4.7-7.6-0.7-2.9-0.5-6.1 0.6-8.9 1-2.9 3-5.3 5.5-7 2.5-1.8 5.5-2.7 8.5-2.7h45v-317c0-8.3 6.7-15 15-15z"/>
		<path id="Layer" class="s1" d="m184 0c-8.3 0-15 6.7-15 15v317h-45c-3 0-6 0.9-8.5 2.7-2.5 1.7-4.5 4.1-5.5 7-1.1 2.8-1.3 6-0.6 8.9 0.8 3 2.4 5.6 4.7 7.6l170 150q1 0.9 2.2 1.7 1.1 0.7 2.4 1.1 1.3 0.5 2.6 0.8 1.3 0.2 2.7 0.2v-512z"/>
		<path id="Layer" class="s2" d="m190 512c-85.5 0-155-69.5-155-155 0-85.5 69.5-155 155-155 85.5 0 155 69.5 155 155 0 85.5-69.5 155-155 155z"/>
		<path id="Layer" class="s3" d="m345 357c0-85.5-69.5-155-155-155v310c85.5 0 155-69.5 155-155z"/>
		<path id="Layer" class="s4" d="m190 232c-68.9 0-125 56.1-125 125 0 68.9 56.1 125 125 125 68.9 0 125-56.1 125-125 0-68.9-56.1-125-125-125z"/>
		<path id="Layer" class="s5" d="m315 357c0-68.9-56.1-125-125-125v250c68.9 0 125-56.1 125-125z"/>
		<path id="Layer" fill-rule="evenodd" class="s2" d="m241.8 398.1c-2 11.9-8 22.8-16.8 30.9-6.7 6.2-14.7 10.4-23.4 12.5v10.5c0 6.9-5.6 12.5-12.5 12.5-6.9 0-12.5-5.6-12.5-12.5v-9.4c-11.3-0.9-20.4-3.7-33.4-12.2-5.8-3.8-7.4-11.6-3.7-17.3 3.8-5.8 11.6-7.4 17.3-3.7 8 5.2 12.9 7.3 19.8 8.1v-59.2c-8.9-4.1-15.5-7.9-20.9-12.1-11-8.6-15.9-23.6-13-39 3.1-16.9 14.9-30.3 30.6-35q0.4-0.1 0.8-0.3 0.4-0.1 0.8-0.2 0.4-0.1 0.8-0.2 0.4-0.1 0.9-0.2v-9.3c0-6.9 5.6-12.5 12.5-12.5 6.9 0 12.5 5.6 12.5 12.5v8c14.5 2.3 24.1 9.8 27.5 13.9 4.3 5.3 3.6 13.2-1.8 17.6-5.2 4.3-12.9 3.6-17.3-1.5-0.5-0.4-3.3-2.9-8.4-4.5v46q0.9 0.4 1.9 0.7 1 0.4 2 0.8 1 0.3 2 0.7 1 0.3 2 0.7c23.7 8.3 36.4 29.4 32.3 53.7zm-65.2-67.9v-32.4c-5.5 3.3-8.4 9.1-9.4 14-1.1 6.2 0.4 11.9 3.9 14.7q2.4 1.9 5.5 3.7zm25 37.9v47c8.9-4.4 14.1-13 15.5-21.1 0.8-4.5 1.8-19.5-15.5-25.9z"/>
		<path id="Layer" fill-rule="evenodd" class="s3" d="m241.8 398.1c-2 11.9-8 22.8-16.8 30.9-6.7 6.2-14.7 10.4-23.4 12.4v10.6c0 6.6-5.1 12-11.6 12.5v-215c6.5 0.5 11.6 5.9 11.6 12.5v8c14.5 2.3 24.1 9.8 27.5 13.9 4.3 5.3 3.6 13.2-1.8 17.6-5.2 4.3-12.9 3.6-17.3-1.5-0.5-0.4-3.3-2.9-8.4-4.5v46q0.9 0.4 1.9 0.7 1 0.4 2 0.7 1 0.4 2 0.8 1 0.3 2 0.7c23.7 8.3 36.4 29.4 32.3 53.7zm-40.2-30v47c8.9-4.4 14.2-13 15.5-21.1 0.8-4.5 1.8-19.5-15.5-25.9z"/>
	</g>
</svg>