<svg xmlns="http://www.w3.org/2000/svg" version="1.1" xmlns:xlink="http://www.w3.org/1999/xlink" xmlns:svgjs="http://svgjs.com/svgjs" width="512" height="512" x="0" y="0" viewBox="0 0 512 512" style="enable-background:new 0 0 512 512" xml:space="preserve" class=""><g><path fill="#9bda05" d="M326 512H106c-8.284 0-15-6.716-15-15V180H46a15 15 0 0 1-9.925-26.248l170-150a15.001 15.001 0 0 1 19.849 0l170 150A15 15 0 0 1 386 180h-45v317c0 8.284-6.716 15-15 15z" data-original="#9bda05" class=""></path><path fill="#80b405" d="M326 512c8.284 0 15-6.716 15-15V180h45a15 15 0 0 0 9.924-26.248l-170-150A14.965 14.965 0 0 0 216 0v512z" data-original="#80b405" class=""></path><path fill="#ffba00" d="M326 512c-85.467 0-155-69.533-155-155s69.533-155 155-155c85.468 0 155 69.533 155 155s-69.532 155-155 155z" data-original="#ffba00" class=""></path><path fill="#f5a000" d="M481 357c0-85.467-69.532-155-155-155v310c85.468 0 155-69.533 155-155z" data-original="#f5a000"></path><path fill="#ffea98" d="M326 232c-68.925 0-125 56.075-125 125s56.075 125 125 125 125-56.075 125-125-56.075-125-125-125z" data-original="#ffea98"></path><path fill="#ffd845" d="M451 357c0-68.925-56.075-125-125-125v250c68.925 0 125-56.075 125-125z" data-original="#ffd845"></path><path fill="#ffba00" d="M345.456 344.364a479.185 479.185 0 0 1-7.893-2.861V295.53c5.171 1.58 7.976 4.084 8.395 4.48 4.419 5.098 12.122 5.779 17.37 1.475 5.338-4.377 6.116-12.254 1.738-17.592-3.363-4.101-12.963-11.58-27.503-13.925V262c0-6.903-5.597-12.5-12.5-12.5s-12.5 5.597-12.5 12.5v9.283a73.853 73.853 0 0 0-3.294.903c-15.702 4.73-27.431 18.145-30.608 35.01-2.911 15.444 2.081 30.371 13.028 38.957 5.376 4.216 11.973 8.08 20.874 12.118v59.206c-6.892-.786-11.807-2.869-19.717-8.042-5.776-3.78-13.524-2.159-17.304 3.618-3.779 5.777-2.159 13.524 3.618 17.303 13.052 8.538 22.168 11.378 33.402 12.227V452c0 6.903 5.597 12.5 12.5 12.5s12.5-5.597 12.5-12.5v-10.541c8.768-2.051 16.732-6.251 23.457-12.43 8.815-8.1 14.766-19.074 16.754-30.901 4.083-24.279-8.603-45.382-32.317-53.764zm-38.338-17.883c-3.521-2.761-5.047-8.514-3.89-14.656.93-4.934 3.855-10.724 9.335-13.977v32.326c-1.999-1.199-3.834-2.43-5.445-3.693zm46.002 67.502c-1.37 8.149-6.647 16.761-15.557 21.089v-46.971c17.378 6.404 16.31 21.404 15.557 25.882z" data-original="#ffba00" class=""></path><path fill="#f5a000" d="M345.456 344.364a468.235 468.235 0 0 1-7.893-2.872V295.53c5.171 1.579 7.976 4.083 8.395 4.479 4.419 5.098 12.122 5.779 17.37 1.475 5.338-4.377 6.116-12.254 1.738-17.592-3.363-4.101-12.963-11.576-27.503-13.918V262c0-6.587-5.099-11.972-11.563-12.453v214.905c6.464-.481 11.563-5.866 11.563-12.453v-10.561c8.766-2.048 16.733-6.232 23.457-12.41 8.815-8.1 14.766-19.074 16.754-30.901 4.082-24.278-8.604-45.381-32.318-53.763zm7.664 49.619c-1.369 8.147-6.648 16.753-15.557 21.08v-46.962c17.378 6.404 16.31 21.404 15.557 25.882z" data-original="#f5a000"></path></g></svg>